<svg width="399" height="399" viewBox="0 0 399 399" fill="none" xmlns="http://www.w3.org/2000/svg">
<path opacity="0.3" d="M99.75 116.375C108.932 116.375 116.375 108.932 116.375 99.75C116.375 90.5683 108.932 83.125 99.75 83.125C90.5683 83.125 83.125 90.5683 83.125 99.75C83.125 108.932 90.5683 116.375 99.75 116.375Z" fill="#29FFE2"/>
<path opacity="0.3" d="M299.25 315.875C308.432 315.875 315.875 308.432 315.875 299.25C315.875 290.068 308.432 282.625 299.25 282.625C290.068 282.625 282.625 290.068 282.625 299.25C282.625 308.432 290.068 315.875 299.25 315.875Z" fill="#29FFE2"/>
<path d="M315.875 252.368V116.375C315.875 79.6337 286.116 49.875 249.375 49.875C212.634 49.875 182.875 79.6337 182.875 116.375V282.625C182.875 300.913 167.913 315.875 149.625 315.875C131.337 315.875 116.375 300.913 116.375 282.625V146.632C135.66 139.65 149.625 121.362 149.625 99.75C149.625 72.1525 127.347 49.875 99.75 49.875C72.1525 49.875 49.875 72.1525 49.875 99.75C49.875 121.362 63.84 139.65 83.125 146.632V282.625C83.125 319.366 112.884 349.125 149.625 349.125C186.366 349.125 216.125 319.366 216.125 282.625V116.375C216.125 98.0875 231.087 83.125 249.375 83.125C267.663 83.125 282.625 98.0875 282.625 116.375V252.368C271.553 256.29 262.224 263.999 256.285 274.134C250.347 284.268 248.18 296.175 250.169 307.751C252.159 319.327 258.175 329.828 267.156 337.399C276.137 344.97 287.504 349.123 299.25 349.125C326.847 349.125 349.125 326.847 349.125 299.25C349.125 277.638 335.16 259.35 315.875 252.368ZM99.75 116.375C90.6062 116.375 83.125 108.894 83.125 99.75C83.125 90.6062 90.6062 83.125 99.75 83.125C108.894 83.125 116.375 90.6062 116.375 99.75C116.375 108.894 108.894 116.375 99.75 116.375ZM299.25 315.875C290.106 315.875 282.625 308.394 282.625 299.25C282.625 290.106 290.106 282.625 299.25 282.625C308.394 282.625 315.875 290.106 315.875 299.25C315.875 308.394 308.394 315.875 299.25 315.875Z" fill="#29FFE2"/>
</svg>
