<?xml version="1.0" encoding="utf-8"?>
<!-- Generator: Adobe Illustrator 26.3.1, SVG Export Plug-In . SVG Version: 6.00 Build 0)  -->
<svg version="1.1" id="Layer_1" xmlns="http://www.w3.org/2000/svg" xmlns:xlink="http://www.w3.org/1999/xlink" x="0px" y="0px"
	 viewBox="0 0 173 173" style="enable-background:new 0 0 173 173;" xml:space="preserve">
<style type="text/css">
	.st0{fill:none;stroke:#29FFE2;stroke-width:20;stroke-linecap:round;stroke-linejoin:round;}
</style>
<path class="st0" d="M72.1,21.6v86.5c0,3.8-1.5,7.5-4.2,10.2c-2.7,2.7-6.4,4.2-10.2,4.2H36c-3.8,0-7.5-1.5-10.2-4.2
	c-2.7-2.7-4.2-6.4-4.2-10.2V36c0-3.8,1.5-7.5,4.2-10.2c2.7-2.7,6.4-4.2,10.2-4.2h72.1c3.8,0,7.5,1.5,10.2,4.2
	c2.7,2.7,4.2,6.4,4.2,10.2v21.6c0,3.8-1.5,7.5-4.2,10.2c-2.7,2.7-6.4,4.2-10.2,4.2H21.6 M144.2,100.9c1.9,0,3.7,0.8,5.1,2.1
	c1.4,1.4,2.1,3.2,2.1,5.1v36c0,1.9-0.8,3.7-2.1,5.1c-1.4,1.4-3.2,2.1-5.1,2.1h-36c-1.9,0-3.7-0.8-5.1-2.1c-1.4-1.4-2.1-3.2-2.1-5.1
	v-36c0-1.9,0.8-3.7,2.1-5.1c1.4-1.4,3.2-2.1,5.1-2.1H144.2z"/>
</svg>
