<?xml version="1.0" encoding="utf-8"?>
<!-- Generator: Adobe Illustrator 26.3.1, SVG Export Plug-In . SVG Version: 6.00 Build 0)  -->
<svg version="1.1" id="Layer_1" xmlns="http://www.w3.org/2000/svg" xmlns:xlink="http://www.w3.org/1999/xlink" x="0px" y="0px"
	 viewBox="0 0 172 172" style="enable-background:new 0 0 172 172;" xml:space="preserve">
<style type="text/css">
	.st0{opacity:0.5;fill-rule:evenodd;clip-rule:evenodd;fill:#29FFE2;enable-background:new    ;}
	.st1{fill:#29FFE2;}
</style>
<path class="st0" d="M14.3,71.7v28.7c0,27,0,40.5,8.4,48.9c8.4,8.4,21.9,8.4,48.9,8.4h3.1c6.3,0,11,0,14.8-0.3v-29
	c0-7.9,0-14.8,0.8-20.4c0.8-6.1,2.7-12.1,7.6-17.1c5-5,11-6.8,17.1-7.6c5.6-0.8,12.5-0.8,20.4-0.8l20.3,0.1c0.6,0,1.2,0,1.7,0.1
	c0.1-2.9,0.1-6.4,0.1-10.8c0-27.2,0-40.8-8.4-49.1c-8.4-8.4-21.9-8.4-48.9-8.4H71.7c-27,0-40.5,0-48.9,8.4
	C14.3,31.1,14.3,44.6,14.3,71.7z"/>
<path class="st1" d="M69.8,76.7c0.7,0.3,1.4,0.4,2.1,0.4c0.7,0,1.4-0.2,2.1-0.5c0.7-0.3,1.2-0.7,1.7-1.2c0.5-0.5,0.9-1.1,1.1-1.8
	c0.3-0.7,0.4-1.4,0.3-2.1c0-0.7-0.2-1.4-0.5-2.1c-0.3-0.6-0.7-1.2-1.3-1.7s-1.2-0.8-1.8-1.1L44.9,55.9c-0.7-0.3-1.4-0.4-2.1-0.4
	c-0.7,0-1.4,0.2-2.1,0.5c-0.7,0.3-1.2,0.7-1.7,1.2c-0.5,0.5-0.9,1.1-1.1,1.8c-0.3,0.7-0.4,1.4-0.3,2.1c0,0.7,0.2,1.4,0.5,2.1
	c0.3,0.6,0.7,1.2,1.3,1.7c0.5,0.5,1.2,0.8,1.8,1.1L69.8,76.7z M67.9,54c0.5,0.5,1.1,1,1.7,1.2c0.7,0.3,1.4,0.5,2.1,0.5
	c0.7,0,1.4-0.1,2.1-0.4c0.7-0.3,1.3-0.7,1.8-1.2c0.5-0.5,0.9-1.1,1.2-1.8c0.3-0.7,0.4-1.4,0.4-2.1c0-0.7-0.2-1.4-0.5-2.1
	c-0.3-0.7-0.7-1.3-1.2-1.7l-7.2-7.2c-1-1-2.4-1.6-3.8-1.6c-1.4,0-2.8,0.6-3.8,1.6l-7.2,7.2c-0.9,1-1.5,2.4-1.4,3.8
	c0,1.4,0.6,2.7,1.6,3.7c1,1,2.3,1.5,3.7,1.6c1.4,0,2.7-0.5,3.8-1.4l3.4-3.4L67.9,54z M61.1,86.2c0.5-0.5,1-1.1,1.2-1.7
	s0.5-1.4,0.5-2.1c0-0.7-0.1-1.4-0.4-2.1c-0.3-0.7-0.7-1.3-1.2-1.8c-0.5-0.5-1.1-0.9-1.8-1.2c-0.7-0.3-1.4-0.4-2.1-0.4
	c-0.7,0-1.4,0.2-2.1,0.5c-0.7,0.3-1.3,0.7-1.7,1.2L50.2,82l-3.4-3.4c-0.5-0.5-1.1-1-1.7-1.2c-0.7-0.3-1.4-0.5-2.1-0.5
	c-0.7,0-1.4,0.1-2.1,0.4c-0.7,0.3-1.3,0.7-1.8,1.2c-0.5,0.5-0.9,1.1-1.2,1.8c-0.3,0.7-0.4,1.4-0.4,2.1c0,0.7,0.2,1.4,0.5,2.1
	c0.3,0.7,0.7,1.3,1.2,1.7l7.2,7.2c1,1,2.4,1.6,3.8,1.6c1.4,0,2.8-0.6,3.8-1.6L61.1,86.2z M155.8,82.5l-20.3-0.1
	c-7.9,0-14.8,0-20.4,0.8C109,84,102.9,85.9,98,90.8c-5,4.9-6.8,11-7.6,17.1c-0.8,5.6-0.8,12.5-0.8,20.4v29c-1.1,0.1-2.3,0.2-3.6,0.2
	v0.1c1.9,0,2.9,0,4-0.1c6.8-0.5,13.4-2.9,18.9-6.9c0.9-0.7,1.5-1.1,2.6-2c6.8-5.7,15.3-13.2,21.1-19.7c5.2-5.8,10.9-13.8,15.5-20.7
	c4-6,6-8.9,7.5-13c0.4-1.2,0.8-2.4,1.1-3.6c0.7-2.8,0.9-5.4,1-9.2L155.8,82.5z"/>
</svg>
