<?xml version="1.0" encoding="utf-8"?>
<!-- Generator: Adobe Illustrator 26.3.1, SVG Export Plug-In . SVG Version: 6.00 Build 0)  -->
<svg version="1.1" id="Layer_1" xmlns="http://www.w3.org/2000/svg" xmlns:xlink="http://www.w3.org/1999/xlink" x="0px" y="0px"
	 viewBox="0 0 143 143" style="enable-background:new 0 0 143 143;" xml:space="preserve">
<style type="text/css">
	.st0{fill-rule:evenodd;clip-rule:evenodd;fill:#E10A40;}
	.st1{fill:#E10A40;}
</style>
<path class="st0" d="M131.1,7.9H11.9c-1.1,0-2.1,0.4-2.8,1.2s-1.2,1.8-1.2,2.8v119.2c0,1.1,0.4,2.1,1.2,2.8s1.8,1.2,2.8,1.2h119.2
	c1.1,0,2.1-0.4,2.8-1.2s1.2-1.8,1.2-2.8V11.9c0-1.1-0.4-2.1-1.2-2.8S132.1,7.9,131.1,7.9z M11.9,0C8.8,0,5.7,1.3,3.5,3.5
	S0,8.8,0,11.9v119.2c0,3.2,1.3,6.2,3.5,8.4s5.3,3.5,8.4,3.5h119.2c3.2,0,6.2-1.3,8.4-3.5s3.5-5.3,3.5-8.4V11.9
	c0-3.2-1.3-6.2-3.5-8.4S134.2,0,131.1,0H11.9z"/>
<path class="st0" d="M57.6,41c-6.5,1.1-11.3,6.7-12.1,13.2l-5.8,49h63.6l-5.8-49.1c-0.8-6.5-5.5-12.1-12-13.2
	C75.8,39.3,67.7,39.3,57.6,41z M62.5,58.2c0.1-1-0.2-2.1-0.8-2.9C61,54.5,60.1,54,59,53.8c-1-0.1-2.1,0.2-2.9,0.8
	c-0.8,0.6-1.4,1.6-1.5,2.6L51,86c-0.1,0.5-0.1,1.1,0.1,1.6c0.1,0.5,0.4,1,0.7,1.4c0.3,0.4,0.7,0.8,1.2,1c0.5,0.3,1,0.4,1.5,0.5
	c0.5,0.1,1.1,0,1.6-0.1s1-0.4,1.4-0.7c0.4-0.3,0.8-0.7,1-1.2c0.3-0.5,0.4-1,0.5-1.5L62.5,58.2z"/>
<path class="st0" d="M65.4,48c1.8,1.2,3.1,2.9,4,4.9c0.9,2,1.2,4.1,0.9,6.3l-3.6,28.8c-0.4,3-1.8,5.6-3.9,7.4h31.5l-4.7-40.2
	c-0.4-3.5-2.8-5.8-5.4-6.3C77.5,47.7,71.8,47.4,65.4,48z M97.5,54.2c-0.8-6.5-5.5-12.1-12-13.2c-9.7-1.7-17.8-1.7-28,0
	c-6.5,1.1-11.3,6.7-12.1,13.2l-5.8,49h63.6L97.5,54.2z M62.5,58.2l-3.6,28.8c-0.1,0.5-0.2,1-0.5,1.5c-0.3,0.5-0.6,0.9-1,1.2
	C57,90,56.5,90.2,56,90.4c-0.5,0.1-1,0.2-1.6,0.1c-0.5-0.1-1-0.2-1.5-0.5c-0.5-0.3-0.9-0.6-1.2-1c-0.3-0.4-0.6-0.9-0.7-1.4
	C51,87,50.9,86.5,51,86l3.6-28.8c0.1-0.5,0.2-1,0.5-1.5c0.3-0.5,0.6-0.9,1-1.2c0.4-0.3,0.9-0.6,1.4-0.7c0.5-0.1,1-0.2,1.6-0.1
	c0.5,0.1,1,0.2,1.5,0.5c0.5,0.3,0.9,0.6,1.2,1c0.3,0.4,0.6,0.9,0.7,1.4C62.5,57.1,62.6,57.7,62.5,58.2z M107.2,119.2H35.8v-7.9h71.5
	V119.2z"/>
<path class="st1" d="M27.8,71.5c0,1.3,0.1,2.7,0.2,4H15.9v-7.9H28C27.9,68.8,27.8,70.2,27.8,71.5z M35.8,46.3
	c-1.5,2.2-2.9,4.5-4,6.9l-10.5-6l4-6.9L35.8,46.3z M53.2,31.8c-2.4,1.1-4.7,2.5-6.9,4l-6-10.5l6.9-4L53.2,31.8z M71.5,27.8
	c-1.3,0-2.7,0.1-4,0.2V15.9h7.9V28C74.2,27.9,72.8,27.8,71.5,27.8z M96.7,35.8c-2.2-1.5-4.5-2.9-6.9-4l6-10.5l6.9,4L96.7,35.8z
	 M111.2,53.2c-1.1-2.4-2.4-4.7-4-6.9l10.5-6l4,6.9L111.2,53.2z M115.2,71.5c0-1.3-0.1-2.7-0.2-4h12.1v7.9H115
	C115.1,74.2,115.2,72.8,115.2,71.5z"/>
</svg>
