<svg width="141" height="141" viewBox="0 0 141 141" fill="none" xmlns="http://www.w3.org/2000/svg">
<path d="M11.75 129.25V23.5C11.75 20.2687 12.9015 17.5036 15.2045 15.2045C17.5075 12.9054 20.2727 11.7539 23.5 11.75H117.5C120.731 11.75 123.498 12.9015 125.801 15.2045C128.104 17.5075 129.254 20.2727 129.25 23.5V94C129.25 97.2313 128.1 99.9984 125.801 102.301C123.502 104.604 120.735 105.754 117.5 105.75H35.25L11.75 129.25ZM55.225 82.25L70.5 66.975L85.775 82.25L94 74.025L78.725 58.75L94 43.475L85.775 35.25L70.5 50.525L55.225 35.25L47 43.475L62.275 58.75L47 74.025L55.225 82.25Z" fill="#E10A40"/>
</svg>
