<svg width="89" height="89" viewBox="0 0 89 89" fill="none" xmlns="http://www.w3.org/2000/svg">
<path fill-rule="evenodd" clip-rule="evenodd" d="M35.8225 67.2395C36.0425 66.6228 36.4476 66.0891 36.9824 65.7113C37.5172 65.3335 38.1556 65.1301 38.8103 65.1289H50.1896C50.8444 65.1301 51.4828 65.3335 52.0176 65.7113C52.5524 66.0891 52.9575 66.6228 53.1775 67.2395L57.5448 79.4325H63.5714C64.8359 79.4325 66.0487 79.9348 66.9428 80.829C67.8369 81.7231 68.3393 82.9358 68.3393 84.2004C68.3393 85.4649 67.8369 86.6776 66.9428 87.5717C66.0487 88.4659 64.8359 88.9682 63.5714 88.9682H25.4286C24.164 88.9682 22.9513 88.4659 22.0572 87.5717C21.163 86.6776 20.6607 85.4649 20.6607 84.2004C20.6607 82.9358 21.163 81.7231 22.0572 80.829C22.9513 79.9348 24.164 79.4325 25.4286 79.4325H31.4551L35.8225 67.2395ZM75.0969 9.63743C74.3105 9.4814 73.4993 9.5017 72.7216 9.69687C71.944 9.89204 71.2193 10.2572 70.5998 10.7661C69.9802 11.275 69.4812 11.9149 69.1387 12.6399C68.7962 13.3648 68.6187 14.1566 68.619 14.9584C68.619 16.2229 68.1167 17.4356 67.2225 18.3297C66.3284 19.2239 65.1156 19.7262 63.8511 19.7262C62.5866 19.7262 61.3739 19.2239 60.4798 18.3297C59.5856 17.4356 59.0833 16.2229 59.0833 14.9584C59.083 12.2061 59.842 9.50718 61.2768 7.15854C62.7115 4.8099 64.7665 2.90263 67.2154 1.64666C69.6644 0.390694 72.4123 -0.165288 75.1569 0.0399111C77.9015 0.24511 80.5362 1.20353 82.7711 2.8097C85.0061 4.41586 86.7546 6.60749 87.8242 9.14337C88.8938 11.6793 89.243 14.4611 88.8334 17.1826C88.4239 19.9042 87.2714 22.46 85.5028 24.5688C83.7342 26.6776 81.4182 28.2575 78.8095 29.1348V30.2409C78.8095 31.5054 78.3072 32.7182 77.413 33.6123C76.5189 34.5065 75.3062 35.0088 74.0416 35.0088C72.7771 35.0088 71.5644 34.5065 70.6702 33.6123C69.7761 32.7182 69.2738 31.5054 69.2738 30.2409V25.1489C69.2738 23.8843 69.7761 22.6716 70.6702 21.7775C71.5644 20.8833 72.7771 20.381 74.0416 20.381C75.3898 20.3835 76.6905 19.8837 77.6901 18.9791C78.6897 18.0746 79.3165 16.8301 79.4483 15.4885C79.5801 14.1468 79.2074 12.8041 78.4029 11.7224C77.5984 10.6406 76.4198 9.8973 75.0969 9.63743ZM74.0416 50.1324C72.5664 50.1324 71.1515 49.5464 70.1084 48.5032C69.0652 47.46 68.4791 46.0452 68.4791 44.5699C68.4791 43.0947 69.0652 41.6798 70.1084 40.6366C71.1515 39.5935 72.5664 39.0074 74.0416 39.0074C74.7721 39.0074 75.4954 39.1513 76.1703 39.4308C76.8452 39.7104 77.4584 40.1201 77.9749 40.6366C78.4914 41.1532 78.9012 41.7664 79.1807 42.4412C79.4603 43.1161 79.6041 43.8395 79.6041 44.5699C79.6041 45.3004 79.4603 46.0237 79.1807 46.6986C78.9012 47.3735 78.4914 47.9867 77.9749 48.5032C77.4584 49.0197 76.8452 49.4295 76.1703 49.709C75.4954 49.9886 74.7721 50.1324 74.0416 50.1324Z" fill="#2859C5"/>
<path fill-rule="evenodd" clip-rule="evenodd" d="M61.3274 27.4247V30.2409C61.3274 32.5931 61.9631 34.7926 63.0756 36.6807C61.6238 38.6987 60.757 41.0782 60.5707 43.5572C60.3844 46.0362 60.8857 48.5185 62.0195 50.7309C63.1533 52.9432 64.8756 54.7998 66.9968 56.0962C69.1179 57.3927 71.5557 58.0787 74.0416 58.0787C76.5276 58.0787 78.9654 57.3927 81.0865 56.0962C83.2077 54.7998 84.93 52.9432 86.0638 50.7309C87.1976 48.5185 87.6989 46.0362 87.5126 43.5572C87.3262 41.0782 86.4595 38.6987 85.0077 36.6807C85.4211 35.978 85.766 35.2372 86.0376 34.4684C87.0813 33.8284 88.0719 33.1056 89 32.307V60.6662C89 65.7837 84.8551 69.9286 79.7376 69.9286H9.26236C8.04601 69.9286 6.84157 69.689 5.71781 69.2235C4.59405 68.758 3.57297 68.0758 2.71288 67.2157C1.85279 66.3556 1.17053 65.3345 0.705055 64.2108C0.239578 63.087 0 61.8826 0 60.6662L0 12.4409C0 7.32343 4.14486 3.17857 9.26236 3.17857H54.3981C52.2631 6.73689 51.1359 10.8087 51.1369 14.9584C51.1371 17.8921 52.152 20.7354 54.0093 23.0063C55.8666 25.2773 58.452 26.8424 61.3274 27.4247Z" fill="#8FBFFA"/>
</svg>
