<svg width="183" height="183" viewBox="0 0 183 183" fill="none" xmlns="http://www.w3.org/2000/svg">
<path fill-rule="evenodd" clip-rule="evenodd" d="M91.5 15.25C133.613 15.25 167.75 49.3871 167.75 91.5C167.75 133.613 133.613 167.75 91.5 167.75C49.3871 167.75 15.25 133.613 15.25 91.5C15.25 49.3871 49.3871 15.25 91.5 15.25ZM91.5 118.187C88.4666 118.187 85.5574 119.393 83.4125 121.537C81.2675 123.682 80.0625 126.592 80.0625 129.625C80.0625 132.658 81.2675 135.568 83.4125 137.713C85.5574 139.857 88.4666 141.062 91.5 141.062C94.5334 141.062 97.4426 139.857 99.5875 137.713C101.732 135.568 102.937 132.658 102.937 129.625C102.937 126.592 101.732 123.682 99.5875 121.537C97.4426 119.393 94.5334 118.187 91.5 118.187ZM129.625 80.0625C126.592 80.0625 123.682 81.2675 121.537 83.4125C119.393 85.5574 118.187 88.4666 118.187 91.5C118.187 94.5334 119.393 97.4426 121.537 99.5875C123.682 101.732 126.592 102.937 129.625 102.937C132.658 102.937 135.568 101.732 137.713 99.5875C139.857 97.4426 141.062 94.5334 141.062 91.5C141.062 88.4666 139.857 85.5574 137.713 83.4125C135.568 81.2675 132.658 80.0625 129.625 80.0625ZM53.375 80.0625C50.3416 80.0625 47.4324 81.2675 45.2875 83.4125C43.1425 85.5574 41.9375 88.4666 41.9375 91.5C41.9375 94.5334 43.1425 97.4426 45.2875 99.5875C47.4324 101.732 50.3416 102.937 53.375 102.937C56.4084 102.937 59.3176 101.732 61.4625 99.5875C63.6075 97.4426 64.8125 94.5334 64.8125 91.5C64.8125 88.4666 63.6075 85.5574 61.4625 83.4125C59.3176 81.2675 56.4084 80.0625 53.375 80.0625ZM91.5 41.9375C89.998 41.9375 88.5107 42.2333 87.123 42.8081C85.7354 43.3829 84.4745 44.2254 83.4125 45.2875C82.3504 46.3495 81.5079 47.6104 80.9331 48.9981C80.3583 50.3857 80.0625 51.873 80.0625 53.375C80.0625 54.877 80.3583 56.3643 80.9331 57.7519C81.5079 59.1396 82.3504 60.4005 83.4125 61.4625C84.4745 62.5246 85.7354 63.3671 87.123 63.9419C88.5107 64.5167 89.998 64.8125 91.5 64.8125C94.5334 64.8125 97.4426 63.6075 99.5875 61.4625C101.732 59.3176 102.937 56.4084 102.937 53.375C102.937 50.3416 101.732 47.4324 99.5875 45.2875C97.4426 43.1425 94.5334 41.9375 91.5 41.9375Z" fill="#29FFE2"/>
</svg>
