<svg id="Layer_1" data-name="Layer 1" xmlns="http://www.w3.org/2000/svg" viewBox="0 0 487.45 487.45"><defs><style>.cls-1{fill:#29ffe2;}.cls-2{fill:#8827ff;}.cls-3,.cls-4{fill:red;fill-opacity:0.75;}.cls-4{fill-rule:evenodd;}</style></defs><rect class="cls-1" width="487.45" height="487.45" rx="88.95"/><path class="cls-2" d="M269.44,46.06l-133,79.53a57.2,57.2,0,0,0-16.74-2.5c-32.45,0-58.76,27.24-58.76,60.85a62,62,0,0,0,12,36.84c-1-1.33-1.91-2.71-2.78-4.12l71.8,128.81-.13.53a83.73,83.73,0,0,0-2.32,19.69v40.56H100.32v40.57h245V406.2l-49.09.05V365.69c0-32.47-18.42-60.49-45-73.45l-4.22-1.91L189.6,187.49l100.07-59.83L333.31,206a31.36,31.36,0,0,0,1.54,20.84l1.3,2.61a30.12,30.12,0,0,0,7.45,8.85l0,41.55,0,.16,37.84,10.5,5.07-19.6-23.28-6.47V244.65a28.49,28.49,0,0,0,13.06-4,29.66,29.66,0,0,0,10.33-10.38l17.15,10.26-6.18,24,18.92,5.25,10-39h0l0-.06-35.94-21.51A31.3,31.3,0,0,0,387,199.05a29.35,29.35,0,0,0-20.6-14.8l-44.87-80.46A41.77,41.77,0,0,0,323,60.91C312.14,41.51,288.18,34.86,269.44,46.06ZM217.83,325.12c20.65,0,37.57,16.55,39.07,37.54l.1,3v40.57H178.66V365.69c0-21.39,16-38.91,36.25-40.46Zm-55.59-99.21,2.16-2.49,35.31,63.31.75-.17a76.89,76.89,0,0,0-32,16.12l-3.42,3.05-34.55-62-.54.1A58.08,58.08,0,0,0,162.24,225.91Zm-42.55-62.25c10.82,0,19.59,9.08,19.59,20.28s-8.77,20.28-19.59,20.28-19.59-9.08-19.59-20.28S108.87,163.66,119.69,163.66ZM286.63,71.51a10.15,10.15,0,1,1-9.79,10.14A10,10,0,0,1,286.63,71.51Z"/><path class="cls-3" d="M361.39,270.41H140.29c-24.43,0-44.22,19.43-44.22,43.41V444c0,24,19.79,43.41,44.22,43.41h221.1c24.43,0,44.22-19.44,44.22-43.41V313.82C405.61,289.84,385.82,270.41,361.39,270.41Z"/><path class="cls-4" d="M195.38,174.74a5.65,5.65,0,0,0-3.93,1.58,5.33,5.33,0,0,0-1.62,3.82V288.2H156.55V180.14c0-20.88,17.4-37.82,38.83-37.82H306.3c21.43,0,38.83,16.94,38.83,37.82V288.2H311.85V180.14a5.34,5.34,0,0,0-1.63-3.82,5.63,5.63,0,0,0-3.92-1.58Z"/></svg>