<svg width="115" height="115" viewBox="0 0 115 115" fill="none" xmlns="http://www.w3.org/2000/svg">
<path d="M78.3917 67.0833C78.775 63.9208 79.0625 60.7583 79.0625 57.5C79.0625 54.2417 78.775 51.0792 78.3917 47.9167H94.5875C95.3542 50.9833 95.8333 54.1937 95.8333 57.5C95.8333 60.8062 95.3542 64.0167 94.5875 67.0833M69.9104 93.725C72.7854 88.4062 74.9896 82.6562 76.5229 76.6667H90.6583C86.016 84.6605 78.651 90.7158 69.9104 93.725ZM68.7125 67.0833H46.2875C45.8083 63.9208 45.5208 60.7583 45.5208 57.5C45.5208 54.2417 45.8083 51.0312 46.2875 47.9167H68.7125C69.1438 51.0312 69.4792 54.2417 69.4792 57.5C69.4792 60.7583 69.1438 63.9208 68.7125 67.0833ZM57.5 95.6417C53.5229 89.8917 50.3125 83.5187 48.3479 76.6667H66.6521C64.6875 83.5187 61.4771 89.8917 57.5 95.6417ZM38.3333 38.3333H24.3417C28.9352 30.317 36.2952 24.2518 45.0417 21.275C42.1667 26.5937 40.0104 32.3437 38.3333 38.3333ZM24.3417 76.6667H38.3333C40.0104 82.6562 42.1667 88.4062 45.0417 93.725C36.3125 90.7173 28.9622 84.6601 24.3417 76.6667ZM20.4125 67.0833C19.6458 64.0167 19.1667 60.8062 19.1667 57.5C19.1667 54.1937 19.6458 50.9833 20.4125 47.9167H36.6083C36.225 51.0792 35.9375 54.2417 35.9375 57.5C35.9375 60.7583 36.225 63.9208 36.6083 67.0833M57.5 19.3104C61.4771 25.0604 64.6875 31.4812 66.6521 38.3333H48.3479C50.3125 31.4812 53.5229 25.0604 57.5 19.3104ZM90.6583 38.3333H76.5229C75.021 32.3994 72.8004 26.6709 69.9104 21.275C78.7271 24.2937 86.0583 30.3792 90.6583 38.3333ZM57.5 9.58333C31.0021 9.58333 9.58334 31.1458 9.58334 57.5C9.58334 70.2083 14.6317 82.3961 23.6178 91.3822C28.0673 95.8317 33.3496 99.3612 39.1631 101.769C44.9766 104.177 51.2075 105.417 57.5 105.417C70.2083 105.417 82.3961 100.368 91.3822 91.3822C100.368 82.3961 105.417 70.2083 105.417 57.5C105.417 51.2075 104.177 44.9766 101.769 39.1631C99.3612 33.3496 95.8317 28.0673 91.3822 23.6178C86.9327 19.1683 81.6504 15.6388 75.8369 13.2308C70.0234 10.8227 63.7925 9.58333 57.5 9.58333Z" fill="#2859C5"/>
</svg>
