<svg width="99" height="99" viewBox="0 0 99 99" fill="none" xmlns="http://www.w3.org/2000/svg">
<path fill-rule="evenodd" clip-rule="evenodd" d="M43.3125 27.126C43.3125 26.3835 43.3125 26.0123 43.0568 25.8266C42.801 25.641 42.4587 25.7524 41.778 25.9751C36.1852 27.8112 31.4298 31.5807 28.3656 36.6068C25.3014 41.633 24.1289 47.5867 25.0586 53.3994C25.9884 59.212 28.9594 64.503 33.4385 68.3226C37.9176 72.1422 43.6114 74.2403 49.498 74.2403C55.3845 74.2403 61.0784 72.1422 65.5575 68.3226C70.0366 64.503 73.0076 59.212 73.9373 53.3994C74.8671 47.5867 73.6946 41.633 70.6304 36.6068C67.5661 31.5807 62.8108 27.8112 57.2179 25.9751C56.5373 25.7524 56.199 25.6451 55.9433 25.8266C55.6875 26.0081 55.6875 26.3835 55.6875 27.126V37.125C55.6875 38.766 55.0356 40.3398 53.8753 41.5002C52.7149 42.6606 51.1411 43.3125 49.5 43.3125C47.859 43.3125 46.2852 42.6606 45.1248 41.5002C43.9644 40.3398 43.3125 38.766 43.3125 37.125V27.126Z" fill="#2859C5"/>
<path d="M49.5 37.125V16.5M74.2913 24.7087C79.1953 29.6121 82.5352 35.8597 83.8885 42.6613C85.2417 49.4628 84.5477 56.513 81.894 62.9201C79.2403 69.3272 74.7463 74.8035 68.9802 78.6564C63.2141 82.5094 56.4349 84.5659 49.5 84.5659C42.5651 84.5659 35.7859 82.5094 30.0198 78.6564C24.2537 74.8035 19.7597 69.3272 17.106 62.9201C14.4524 56.513 13.7583 49.4628 15.1116 42.6613C16.4649 35.8597 19.8047 29.6121 24.7088 24.7087" stroke="#8FBFFA" stroke-linecap="round"/>
</svg>
