<svg width="178" height="178" viewBox="0 0 178 178" fill="none" xmlns="http://www.w3.org/2000/svg">
<path opacity="0.5" fill-rule="evenodd" clip-rule="evenodd" d="M105.903 15.9606C103.158 14.8333 99.6726 14.8333 92.7083 14.8333C85.7441 14.8333 82.2657 14.8333 79.5141 15.9606C77.7036 16.7004 76.0573 17.7909 74.6698 19.1694C73.2824 20.5479 72.1813 22.1872 71.4299 23.9929C70.7327 25.6468 70.4657 27.5826 70.3545 30.3935C70.3016 32.4294 69.732 34.4184 68.6993 36.1737C67.6666 37.929 66.2047 39.393 64.4508 40.4282C62.6615 41.4228 60.6501 41.9497 58.603 41.9601C56.5558 41.9705 54.5392 41.464 52.7399 40.4876C50.2331 39.1674 48.416 38.4406 46.6212 38.2032C42.6947 37.6909 38.7244 38.7461 35.5703 41.1402C33.2118 42.9351 31.4689 45.9314 27.9905 51.9166C24.5047 57.9019 22.7692 60.8908 22.3761 63.8204C21.8569 67.7216 22.9249 71.6672 25.3427 74.7896C26.4404 76.2136 27.9905 77.4077 30.3861 78.9059C33.9238 81.1086 36.1933 84.8615 36.1933 89C36.1933 93.1385 33.9238 96.8913 30.3935 99.0866C27.9905 100.592 26.4404 101.786 25.3353 103.21C24.1454 104.755 23.2716 106.518 22.7639 108.4C22.2561 110.283 22.1243 112.246 22.3761 114.18C22.7692 117.102 24.5047 120.098 27.9905 126.083C31.4763 132.069 33.2118 135.057 35.5703 136.86C38.715 139.255 42.6903 140.308 46.6212 139.797C48.416 139.559 50.2331 138.833 52.7399 137.512C54.5401 136.535 56.5581 136.027 58.6067 136.038C60.6553 136.048 62.668 136.576 64.4582 137.572C68.0627 139.648 70.1987 143.468 70.3545 147.606C70.4657 150.425 70.7327 152.353 71.4299 154.007C72.9429 157.641 75.8502 160.534 79.5141 162.039C82.2582 163.167 85.7441 163.167 92.7083 163.167C99.6726 163.167 103.158 163.167 105.903 162.039C107.713 161.3 109.359 160.209 110.747 158.831C112.134 157.452 113.235 155.813 113.987 154.007C114.684 152.353 114.951 150.425 115.062 147.606C115.21 143.468 117.354 139.641 120.966 137.572C122.755 136.577 124.767 136.05 126.814 136.04C128.861 136.029 130.877 136.536 132.677 137.512C135.184 138.833 137.001 139.559 138.796 139.797C142.726 140.316 146.702 139.255 149.846 136.86C152.205 135.065 153.948 132.069 157.426 126.083C160.912 120.098 162.647 117.109 163.041 114.18C163.291 112.246 163.158 110.282 162.649 108.4C162.14 106.517 161.265 104.754 160.074 103.21C158.976 101.786 157.426 100.592 155.031 99.0941C151.493 96.8913 149.223 93.1385 149.223 89C149.223 84.8615 151.493 81.1087 155.023 78.9133C157.426 77.4077 158.976 76.2136 160.081 74.7896C161.271 73.2454 162.145 71.4818 162.653 69.5996C163.161 67.7174 163.292 65.7536 163.041 63.8204C162.647 60.8982 160.912 57.9019 157.426 51.9166C153.94 45.9314 152.205 42.9425 149.846 41.1402C146.692 38.7461 142.722 37.6909 138.796 38.2032C137.001 38.4406 135.184 39.1674 132.677 40.4876C130.877 41.4653 128.859 41.9725 126.81 41.9621C124.761 41.9518 122.749 41.4241 120.958 40.4282C119.206 39.3921 117.745 37.9277 116.714 36.1725C115.683 34.4172 115.114 32.4287 115.062 30.3935C114.951 27.5751 114.684 25.6468 113.987 23.9929C113.235 22.1872 112.134 20.5479 110.747 19.1694C109.359 17.7909 107.713 16.7004 105.903 15.9606Z" fill="#29FFE2"/>
<path d="M115.129 89C115.129 101.289 105.087 111.25 92.7083 111.25C80.3299 111.25 70.2878 101.289 70.2878 89C70.2878 76.7106 80.3225 66.75 92.7083 66.75C105.094 66.75 115.129 76.7106 115.129 89Z" fill="#29FFE2"/>
</svg>
