<svg width="137" height="137" viewBox="0 0 137 137" fill="none" xmlns="http://www.w3.org/2000/svg">
<rect width="137" height="137" rx="25" fill="#29FFE2"/>
<path d="M75.7289 12.9454L38.3447 35.2989C36.8201 34.8314 35.2341 34.594 33.6394 34.5946C24.5187 34.5946 17.125 42.2516 17.125 51.6972C17.125 55.5893 18.3805 59.1778 20.4949 62.0522C20.219 61.6772 19.9585 61.2911 19.7141 60.8949L39.893 97.0969L39.8563 97.2459C39.4213 99.0581 39.2022 100.915 39.2037 102.779L39.2072 114.18L28.1942 114.181V125.583H97.0418V114.166L83.2457 114.18L83.2425 102.779C83.2425 93.6531 78.0659 85.7791 70.5876 82.1347L69.4001 81.5998L53.2874 52.696L81.4128 35.8785L93.6788 57.9068C93.1656 59.7992 93.2788 61.8721 94.1126 63.7625L94.4773 64.4954C95.0309 65.4879 95.7475 66.3224 96.5719 66.9828L96.5794 78.6621L96.5695 78.706L107.204 81.6571L108.629 76.1503L102.085 74.3302L102.085 68.7598C103.339 68.6889 104.595 68.3199 105.757 67.6253C106.986 66.8905 107.964 65.8777 108.659 64.7079L113.479 67.5921L111.743 74.3246L117.06 75.8001L119.875 64.8494L119.863 64.8481L119.872 64.8302L109.771 58.7853C109.607 57.788 109.272 56.8266 108.779 55.9439C107.497 53.643 105.337 52.193 102.99 51.7852L90.3793 29.1719C92.6406 25.6746 92.9376 21.01 90.7684 17.1188C87.7282 11.6656 80.9948 9.79683 75.7289 12.9454ZM61.2232 91.3774C67.0272 91.3774 71.7824 96.0287 72.2025 101.928L72.2327 102.779V114.181H50.2134V102.779C50.2134 96.7683 54.7047 91.844 60.4015 91.4087L61.2232 91.3774ZM45.5975 63.4931L46.207 62.7931L56.1307 80.5886L56.3407 80.5383C52.989 81.3239 49.9274 82.9016 47.3488 85.0708L46.3887 85.9271L36.6772 68.5112L36.5271 68.5393C40.0677 67.8926 43.2192 66.0779 45.5975 63.4931ZM33.6394 45.9964C36.6796 45.9964 39.1443 48.5488 39.1443 51.6972C39.1443 54.8455 36.6796 57.3982 33.6394 57.3982C30.5992 57.3982 28.1348 54.8457 28.1348 51.6972C28.1348 48.5488 30.5992 45.9964 33.6394 45.9964ZM80.5592 20.0991C82.0793 20.0991 83.3115 21.3755 83.3115 22.9496C83.3115 24.5238 82.0793 25.8001 80.5592 25.8001C79.0391 25.8001 77.8069 24.5238 77.8069 22.9496C77.8069 21.3755 79.0391 20.0991 80.5592 20.0991Z" fill="#8827FF"/>
<path d="M100.857 76H40.1429C33.4365 76 28 81.4621 28 88.2V124.8C28 131.538 33.4365 137 40.1429 137H100.857C107.563 137 113 131.538 113 124.8V88.2C113 81.4621 107.563 76 100.857 76Z" fill="#22FE2D" fill-opacity="0.75"/>
<path fill-rule="evenodd" clip-rule="evenodd" d="M58.5 42.1765C57.3065 42.1765 56.1619 42.6599 55.318 43.5203C54.4741 44.3808 54 45.5478 54 46.7647V80.4118C54 81.6286 53.5259 82.7957 52.682 83.6561C51.8381 84.5166 50.6935 85 49.5 85C48.3065 85 47.1619 84.5166 46.318 83.6561C45.4741 82.7957 45 81.6286 45 80.4118V46.7647C45 43.1141 46.4223 39.613 48.9541 37.0316C51.4858 34.4502 54.9196 33 58.5 33H82.5C86.0804 33 89.5142 34.4502 92.0459 37.0316C94.5777 39.613 96 43.1141 96 46.7647V62.1934C96 63.4103 95.5259 64.5773 94.682 65.4378C93.8381 66.2982 92.6935 66.7817 91.5 66.7817C90.3065 66.7817 89.1619 66.2982 88.318 65.4378C87.4741 64.5773 87 63.4103 87 62.1934V46.7647C87 45.5478 86.5259 44.3808 85.682 43.5203C84.8381 42.6599 83.6935 42.1765 82.5 42.1765H58.5Z" fill="#22FE2D" fill-opacity="0.75"/>
</svg>
